<svg width="52" height="52" viewBox="0 0 52 52" fill="none" xmlns="http://www.w3.org/2000/svg">
<rect width="52" height="52" rx="12" fill="url(#paint0_linear_2033_4259)"/>
<rect x="0.5" y="0.5" width="51" height="51" rx="11.5" stroke="url(#paint1_linear_2033_4259)" stroke-opacity="0.2"/>
<path d="M21.2759 26.0004C21.2759 23.3475 23.348 21.2754 26.0009 21.2754C28.6095 21.2754 30.7259 23.3475 30.7259 26.0004C30.7259 28.609 28.6095 30.7254 26.0009 30.7254C23.348 30.7254 21.2759 28.609 21.2759 26.0004ZM26.0009 23.6379C24.6966 23.6379 23.6384 24.6961 23.6384 26.0004C23.6384 27.3047 24.6966 28.3629 26.0009 28.3629C27.3052 28.3629 28.3634 27.3047 28.3634 26.0004C28.3634 24.6961 27.3052 23.6379 26.0009 23.6379ZM27.827 13.4004C28.9196 13.4004 29.8695 14.148 30.1255 15.2087L30.5094 16.8068C30.9277 17.0111 31.3264 17.2429 31.7054 17.4993L33.2853 17.0342C34.3337 16.7256 35.4559 17.174 36.0022 18.119L37.8282 21.2803C38.3696 22.2253 38.1973 23.4213 37.4098 24.1744L36.2138 25.267C36.2286 25.5377 36.2384 25.7691 36.2384 26.0004C36.2384 26.2317 36.2286 26.463 36.2138 26.6895L37.4098 27.8264C38.1973 28.5795 38.3696 29.7755 37.8282 30.7205L36.0022 33.8803C35.4559 34.8253 34.3337 35.2732 33.2853 34.968L31.7054 34.5005C31.3264 34.7564 30.9277 34.9877 30.5094 35.1945L30.1255 36.7941C29.8695 37.8523 28.9196 38.6004 27.827 38.6004H24.1749C23.0823 38.6004 22.1323 37.8523 21.8764 36.7941L21.4925 35.1945C21.0741 34.9877 20.6755 34.7564 20.2965 34.5005L18.6723 34.968C17.6697 35.2732 16.548 34.8253 16.0022 33.8803L14.1761 30.7205C13.6303 29.7755 13.803 28.5795 14.5935 27.8264L15.7866 26.6895C15.7713 26.463 15.7634 26.2317 15.7634 25.9561C15.7634 25.7691 15.7713 25.5377 15.7866 25.267L14.5935 24.1744C13.8029 23.4213 13.6303 22.2253 14.1761 21.2803L16.0022 18.119C16.548 17.174 17.6697 16.7256 18.6723 17.0342L20.2965 17.4993C20.6755 17.2429 21.0741 17.0111 21.4925 16.8068L21.8764 15.2087C22.1323 14.1475 23.0823 13.4004 24.1749 13.4004L27.827 13.4004ZM23.5154 18.4995L22.9641 18.7308C22.3391 18.9916 21.7583 19.3313 21.2316 19.7348L20.7542 20.0991L18.0482 19.3017L16.2217 22.4616L18.2642 24.4057L18.1889 24.9963C18.1476 25.3261 18.1259 25.6608 18.1259 26.0004C18.1259 26.34 18.1476 26.6747 18.1889 27.0045L18.2642 27.5951L16.2222 29.5392L18.0482 32.6991L20.7542 31.9017L21.2316 32.2659C21.7583 32.6695 22.3391 33.0091 22.9641 33.27L23.5154 33.5013L24.1749 36.2379H27.827L28.4865 33.5013L29.0377 33.27C29.6628 33.0091 30.2436 32.6695 30.7702 32.2659L31.2477 31.9017L33.9547 32.6991L35.7807 29.5392L33.7381 27.5951L33.812 27.0045C33.8563 26.6747 33.8759 26.34 33.8759 26.0004C33.8759 25.6608 33.8563 25.3261 33.812 24.9963L33.7381 24.4057L35.7807 22.4616L33.9547 19.3017L31.2477 20.0991L30.7702 19.7348C30.2436 19.3313 29.6628 18.9916 29.0377 18.7308L28.4865 18.4995L27.827 15.7629H24.1749L23.5154 18.4995Z" fill="white"/>
<defs>
<linearGradient id="paint0_linear_2033_4259" x1="26" y1="55.5" x2="25.5299" y2="0.00398249" gradientUnits="userSpaceOnUse">
<stop stop-color="#F024F6"/>
<stop offset="1" stop-color="#F024F6" stop-opacity="0.5"/>
</linearGradient>
<linearGradient id="paint1_linear_2033_4259" x1="26" y1="0" x2="26" y2="52" gradientUnits="userSpaceOnUse">
<stop stop-opacity="0.5"/>
<stop offset="1"/>
</linearGradient>
</defs>
</svg>
