<svg width="16" height="18" viewBox="0 0 16 18" fill="none" xmlns="http://www.w3.org/2000/svg">
<g clip-path="url(#clip0_1590_3976)">
<path d="M15.9952 16.258C13.8719 17.4076 11.7485 18.0649 8.94533 17.9825C3.75195 17.8257 0.000976562 14.5625 0.000976562 9.06725C0.000976562 3.59409 3.78876 0.0916392 8.95224 0.0103489C11.5714 -0.0279737 13.9087 0.637446 15.7433 2.27254L13.5314 4.51964C12.3995 3.54183 10.7351 2.97396 8.73829 3.06338C5.48998 3.21319 3.52995 5.60196 3.48509 8.87332C3.44138 12.4199 5.60155 14.8691 8.97409 14.9585C10.5649 14.9956 11.6967 14.7866 12.6802 14.3383V10.7174H9.17423L9.41119 7.73757H15.9872L15.9952 16.258Z" fill="#002856"/>
</g>
<defs>
<clipPath id="clip0_1590_3976">
<rect width="16" height="18" fill="white"/>
</clipPath>
</defs>
</svg>
