<svg width="19" height="18" viewBox="0 0 19 18" fill="none" xmlns="http://www.w3.org/2000/svg">
<g clip-path="url(#clip0_1590_2098)">
<path d="M13.1862 12.4643C13.8184 13.5413 14.4437 14.6061 15.0684 15.6697C12.3019 17.7487 7.99782 18 4.81156 15.6058C1.14488 12.8485 0.542228 8.14365 2.50531 4.75693C4.76314 0.861466 8.98829 -3.84152e-05 11.7087 0.63167C11.6351 0.788559 10.0058 4.10653 10.0058 4.10653C10.0058 4.10653 9.87699 4.11483 9.80413 4.11622C9.00004 4.14967 8.40115 4.33333 7.75925 4.6591C7.05499 5.01983 6.45146 5.54439 6.00141 6.18693C5.55136 6.82947 5.26849 7.57044 5.17753 8.34507C5.08261 9.13065 5.19328 9.92702 5.49907 10.6589C5.75761 11.2777 6.12334 11.8273 6.61364 12.2913C7.36578 13.0037 8.26083 13.4449 9.29831 13.5909C10.2808 13.7294 11.2257 13.5923 12.1111 13.1556C12.4432 12.992 12.7257 12.8113 13.056 12.5635C13.098 12.5368 13.1354 12.5029 13.1862 12.4643Z" fill="#FF492C"/>
<path d="M13.1927 3.01881C13.0322 2.86376 12.8834 2.72072 12.7353 2.57675C12.6469 2.49092 12.5619 2.40163 12.4714 2.31788C12.4389 2.28766 12.4009 2.24636 12.4009 2.24636C12.4009 2.24636 12.4316 2.18222 12.4448 2.15592C12.618 1.81468 12.8895 1.56528 13.2115 1.36686C13.5676 1.14578 13.9825 1.0333 14.4037 1.04362C14.9426 1.054 15.4437 1.18574 15.8666 1.54059C16.1787 1.80246 16.3388 2.13469 16.367 2.5313C16.414 3.20038 16.1319 3.71281 15.5718 4.07042C15.2428 4.28084 14.8879 4.4435 14.532 4.63615C14.3357 4.74251 14.1679 4.83595 13.9761 5.02837C13.8074 5.22148 13.7991 5.40352 13.7991 5.40352L16.3486 5.40029V6.51489H12.4133V6.40714C12.3983 5.85942 12.4634 5.34399 12.7189 4.84656C12.9539 4.3902 13.3192 4.05612 13.758 3.79887C14.096 3.60068 14.4518 3.43202 14.7905 3.23476C14.9995 3.11317 15.1471 2.93482 15.1459 2.67619C15.1459 2.45424 14.9814 2.25697 14.7464 2.19537C14.1921 2.04863 13.628 2.28281 13.3347 2.7807C13.2919 2.85338 13.2482 2.9256 13.1927 3.01881ZM18.1242 11.2795L15.9756 7.63734H11.7239L9.56152 11.3171H13.8445L15.958 14.9419L18.1242 11.2795Z" fill="#FF492C"/>
</g>
<defs>
<clipPath id="clip0_1590_2098">
<rect width="18" height="18" fill="white" transform="translate(0.333008)"/>
</clipPath>
</defs>
</svg>
