<svg width="19" height="18" viewBox="0 0 19 18" fill="none" xmlns="http://www.w3.org/2000/svg">
<path d="M18.5536 8.85904L13.7455 4.051C13.668 3.97809 13.5655 3.9375 13.4591 3.9375C13.3527 3.9375 13.2502 3.97809 13.1727 4.051L12.2279 4.99588L16.091 8.85904C16.1288 8.89655 16.1588 8.94118 16.1793 8.99036C16.1998 9.03949 16.2103 9.09223 16.2103 9.14547C16.2103 9.19868 16.1998 9.25142 16.1793 9.30059C16.1588 9.34972 16.1288 9.39436 16.091 9.43186L12.1191 13.4037L13.064 14.3486C13.1416 14.4215 13.244 14.4621 13.3504 14.4621C13.4569 14.4621 13.5593 14.4215 13.6368 14.3486L18.5536 9.43186C18.6265 9.3543 18.6671 9.25188 18.6671 9.14547C18.6671 9.03902 18.6265 8.9366 18.5536 8.85904Z" fill="#009C9C"/>
<path d="M10.3629 4.4001L10.0137 4.051C9.93623 3.97809 9.83381 3.9375 9.72736 3.9375C9.62095 3.9375 9.51853 3.97809 9.44097 4.051L8.49609 4.99588L9.12323 5.62302L10.3545 6.85432L11.5837 5.62302L10.3629 4.4001Z" fill="#40E3E3"/>
<path d="M10.246 11.5435L9.01679 12.7748L8.38965 13.4019L9.33452 14.3468C9.41208 14.4197 9.51451 14.4603 9.62091 14.4603C9.72736 14.4603 9.82979 14.4197 9.9073 14.3468L10.2543 13.9977L11.4856 12.7664L10.246 11.5435Z" fill="#40E3E3"/>
<path d="M12.3596 8.859C12.4325 8.93656 12.4731 9.03899 12.4731 9.14544C12.4731 9.25184 12.4325 9.35427 12.3596 9.43183L10.2461 11.5432L11.4774 12.7745L14.8222 9.42974C14.8599 9.39224 14.8899 9.3476 14.9104 9.29843C14.9309 9.2493 14.9414 9.19656 14.9414 9.14331C14.9414 9.09011 14.9309 9.03736 14.9104 8.98819C14.8899 8.93906 14.8599 8.89443 14.8222 8.85692L11.5945 5.63135L10.3632 6.86262L12.3596 8.859Z" fill="#1ABAB8"/>
<path d="M4.51775 8.97406L7.86248 5.62929L6.63122 4.39801L6.28 4.051C6.20249 3.97809 6.10007 3.9375 5.99361 3.9375C5.88721 3.9375 5.78478 3.97809 5.70722 4.051L0.786272 8.97406C0.748475 9.01152 0.718476 9.05615 0.698004 9.10533C0.677532 9.15446 0.666992 9.2072 0.666992 9.26045C0.666992 9.3137 0.677532 9.36639 0.698004 9.41557C0.718476 9.46469 0.748475 9.50933 0.786272 9.54684L5.59434 14.3549C5.67189 14.4278 5.77432 14.4684 5.88072 14.4684C5.98718 14.4684 6.0896 14.4278 6.16711 14.3549L6.52041 14.0058L7.75167 12.7745L4.51775 9.54684C4.47995 9.50933 4.44995 9.46469 4.42948 9.41557C4.40901 9.36639 4.39847 9.3137 4.39847 9.26045C4.39847 9.2072 4.40901 9.15446 4.42948 9.10533C4.44995 9.05615 4.47995 9.01152 4.51775 8.97406Z" fill="#87F0F0"/>
<path d="M8.24878 8.97444L9.72675 7.49856L8.49544 6.26727L7.8683 5.64014L4.52358 8.98486C4.48578 9.02237 4.45578 9.067 4.43531 9.11613C4.41484 9.16531 4.4043 9.21805 4.4043 9.27125C4.4043 9.3245 4.41484 9.37724 4.43531 9.42641C4.45578 9.47554 4.48578 9.52018 4.52358 9.55769L7.74499 12.7749L8.37213 12.1477L9.60339 10.9165L8.24044 9.55556C8.16752 9.47804 8.12691 9.37562 8.12691 9.26917C8.12691 9.16276 8.16752 9.06034 8.24044 8.98278" fill="#40E3E3"/>
<path d="M8.24923 9.54671L9.61223 10.9076L11.0881 9.43174C11.1259 9.39423 11.1559 9.3496 11.1763 9.30047C11.1968 9.25129 11.2073 9.19855 11.2073 9.1453C11.2073 9.0921 11.1968 9.03936 11.1763 8.99019C11.1559 8.94106 11.1259 8.89642 11.0881 8.85891L9.7272 7.49805L8.24923 8.97389C8.1763 9.05145 8.13574 9.15387 8.13574 9.26032C8.13574 9.36673 8.1763 9.46915 8.24923 9.54671Z" fill="#17CFCF"/>
</svg>
